<svg version="1.1" xmlns="http://www.w3.org/2000/svg" viewBox="0 0 1146.5241041671209 1051.473386727437" width="2293.0482083342417" height="2102.946773454874">
  <!-- svg-source:excalidraw -->
  
  <defs>
    <style>
      @font-face {
        font-family: "Virgil";
        src: url("https://excalidraw.com/Virgil.woff2");
      }
      @font-face {
        font-family: "Cascadia";
        src: url("https://excalidraw.com/Cascadia.woff2");
      }
    </style>
  </defs>
  <rect x="0" y="0" width="1146.5241041671209" height="1051.473386727437" fill="#ffffff"></rect><g stroke-opacity="0.4" fill-opacity="0.4" stroke-linecap="round" transform="translate(30.67108777576823 886.1497699022574) rotate(0 332.1264063479486 66.82188734942093)"><path d="M0 0 L664.25 0 L664.25 133.64 L0 133.64" stroke="none" stroke-width="0" fill="#4c6ef5"></path><path d="M0 0 C157.54 0, 315.08 0, 664.25 0 M0 0 C191.63 0, 383.26 0, 664.25 0 M664.25 0 C664.25 32.69, 664.25 65.38, 664.25 133.64 M664.25 0 C664.25 44.2, 664.25 88.39, 664.25 133.64 M664.25 133.64 C449.77 133.64, 235.29 133.64, 0 133.64 M664.25 133.64 C406.11 133.64, 147.97 133.64, 0 133.64 M0 133.64 C0 88.29, 0 42.94, 0 0 M0 133.64 C0 87.61, 0 41.58, 0 0" stroke="#364fc7" stroke-width="4" fill="none"></path></g><g stroke-linecap="round" transform="translate(489 266) rotate(0 96.5 30.5)"><path d="M15.25 0 M15.25 0 C78.06 0, 140.87 0, 177.75 0 M15.25 0 C78.92 0, 142.59 0, 177.75 0 M177.75 0 C187.92 0, 193 5.08, 193 15.25 M177.75 0 C187.92 0, 193 5.08, 193 15.25 M193 15.25 C193 26.24, 193 37.23, 193 45.75 M193 15.25 C193 24.35, 193 33.45, 193 45.75 M193 45.75 C193 55.92, 187.92 61, 177.75 61 M193 45.75 C193 55.92, 187.92 61, 177.75 61 M177.75 61 C117.78 61, 57.81 61, 15.25 61 M177.75 61 C133.03 61, 88.32 61, 15.25 61 M15.25 61 C5.08 61, 0 55.92, 0 45.75 M15.25 61 C5.08 61, 0 55.92, 0 45.75 M0 45.75 C0 34.53, 0 23.31, 0 15.25 M0 45.75 C0 38.18, 0 30.61, 0 15.25 M0 15.25 C0 5.08, 5.08 0, 15.25 0 M0 15.25 C0 5.08, 5.08 0, 15.25 0" stroke="#000000" stroke-width="2" fill="none"></path></g><g transform="translate(556 285) rotate(0 31.5 11.5)"><text x="0" y="18" font-family="Helvetica, Segoe UI Emoji" font-size="20px" fill="#000000" text-anchor="start" style="white-space: pre;" direction="ltr">Servlet</text></g><g stroke-linecap="round" transform="translate(485 22) rotate(0 96.5 30.499999999999993)"><path d="M15.25 0 M15.25 0 C76.26 0, 137.28 0, 177.75 0 M15.25 0 C52.29 0, 89.33 0, 177.75 0 M177.75 0 C187.92 0, 193 5.08, 193 15.25 M177.75 0 C187.92 0, 193 5.08, 193 15.25 M193 15.25 C193 25.71, 193 36.17, 193 45.75 M193 15.25 C193 26.99, 193 38.73, 193 45.75 M193 45.75 C193 55.92, 187.92 61, 177.75 61 M193 45.75 C193 55.92, 187.92 61, 177.75 61 M177.75 61 C139.88 61, 102.01 61, 15.25 61 M177.75 61 C134.35 61, 90.95 61, 15.25 61 M15.25 61 C5.08 61, 0 55.92, 0 45.75 M15.25 61 C5.08 61, 0 55.92, 0 45.75 M0 45.75 C0 37.42, 0 29.08, 0 15.25 M0 45.75 C0 37.45, 0 29.16, 0 15.25 M0 15.25 C0 5.08, 5.08 0, 15.25 0 M0 15.25 C0 5.08, 5.08 0, 15.25 0" stroke="#000000" stroke-width="2" fill="none"></path></g><g transform="translate(557.5 40) rotate(0 18.5 11.5)"><text x="0" y="18" font-family="Helvetica, Segoe UI Emoji" font-size="20px" fill="#000000" text-anchor="start" style="white-space: pre;" direction="ltr">App</text></g><g stroke-linecap="round" transform="translate(483.23838988140665 640.9019581560084) rotate(0 96.5 30.5)"><path d="M15.25 0 M15.25 0 C48.25 0, 81.25 0, 177.75 0 M15.25 0 C60.1 0, 104.95 0, 177.75 0 M177.75 0 C187.92 0, 193 5.08, 193 15.25 M177.75 0 C187.92 0, 193 5.08, 193 15.25 M193 15.25 C193 26.84, 193 38.44, 193 45.75 M193 15.25 C193 21.93, 193 28.61, 193 45.75 M193 45.75 C193 55.92, 187.92 61, 177.75 61 M193 45.75 C193 55.92, 187.92 61, 177.75 61 M177.75 61 C142.51 61, 107.27 61, 15.25 61 M177.75 61 C127.63 61, 77.51 61, 15.25 61 M15.25 61 C5.08 61, 0 55.92, 0 45.75 M15.25 61 C5.08 61, 0 55.92, 0 45.75 M0 45.75 C0 34.14, 0 22.52, 0 15.25 M0 45.75 C0 34.18, 0 22.61, 0 15.25 M0 15.25 C0 5.08, 5.08 0, 15.25 0 M0 15.25 C0 5.08, 5.08 0, 15.25 0" stroke="#000000" stroke-width="2" fill="none"></path></g><g transform="translate(555.7383898814066 658.9019581560084) rotate(0 18.5 11.5)"><text x="0" y="18" font-family="Helvetica, Segoe UI Emoji" font-size="20px" fill="#000000" text-anchor="start" style="white-space: pre;" direction="ltr">App</text></g><g stroke-linecap="round" transform="translate(39 265) rotate(0 96.5 30.5)"><path d="M15.25 0 M15.25 0 C77.38 0, 139.51 0, 177.75 0 M15.25 0 C59.3 0, 103.36 0, 177.75 0 M177.75 0 C187.92 0, 193 5.08, 193 15.25 M177.75 0 C187.92 0, 193 5.08, 193 15.25 M193 15.25 C193 26.37, 193 37.48, 193 45.75 M193 15.25 C193 22.52, 193 29.78, 193 45.75 M193 45.75 C193 55.92, 187.92 61, 177.75 61 M193 45.75 C193 55.92, 187.92 61, 177.75 61 M177.75 61 C126.72 61, 75.7 61, 15.25 61 M177.75 61 C121.48 61, 65.21 61, 15.25 61 M15.25 61 C5.08 61, 0 55.92, 0 45.75 M15.25 61 C5.08 61, 0 55.92, 0 45.75 M0 45.75 C0 35.3, 0 24.85, 0 15.25 M0 45.75 C0 33.79, 0 21.83, 0 15.25 M0 15.25 C0 5.08, 5.08 0, 15.25 0 M0 15.25 C0 5.08, 5.08 0, 15.25 0" stroke="#000000" stroke-width="2" fill="none"></path></g><g transform="translate(89.5 282) rotate(0 47 11.5)"><text x="0" y="18" font-family="Helvetica, Segoe UI Emoji" font-size="20px" fill="#000000" text-anchor="start" style="white-space: pre;" direction="ltr">Data Base</text></g><g stroke-linecap="round" transform="translate(36.23838988140665 926.9019581560084) rotate(0 96.5 30.5)"><path d="M15.25 0 M15.25 0 C55.54 0, 95.83 0, 177.75 0 M15.25 0 C68.34 0, 121.44 0, 177.75 0 M177.75 0 C187.92 0, 193 5.08, 193 15.25 M177.75 0 C187.92 0, 193 5.08, 193 15.25 M193 15.25 C193 26.82, 193 38.4, 193 45.75 M193 15.25 C193 25.8, 193 36.36, 193 45.75 M193 45.75 C193 55.92, 187.92 61, 177.75 61 M193 45.75 C193 55.92, 187.92 61, 177.75 61 M177.75 61 C136.79 61, 95.82 61, 15.25 61 M177.75 61 C133.04 61, 88.33 61, 15.25 61 M15.25 61 C5.08 61, 0 55.92, 0 45.75 M15.25 61 C5.08 61, 0 55.92, 0 45.75 M0 45.75 C0 35.53, 0 25.31, 0 15.25 M0 45.75 C0 37.54, 0 29.33, 0 15.25 M0 15.25 C0 5.08, 5.08 0, 15.25 0 M0 15.25 C0 5.08, 5.08 0, 15.25 0" stroke="#000000" stroke-width="2" fill="none"></path></g><g transform="translate(86.73838988140665 943.9019581560084) rotate(0 47 11.5)"><text x="0" y="18" font-family="Helvetica, Segoe UI Emoji" font-size="20px" fill="#000000" text-anchor="start" style="white-space: pre;" direction="ltr">Data Base</text></g><g stroke-linecap="round" transform="translate(485 144) rotate(0 96.5 30.5)"><path d="M15.25 0 M15.25 0 C74.34 0, 133.42 0, 177.75 0 M15.25 0 C68.32 0, 121.39 0, 177.75 0 M177.75 0 C187.92 0, 193 5.08, 193 15.25 M177.75 0 C187.92 0, 193 5.08, 193 15.25 M193 15.25 C193 27.28, 193 39.32, 193 45.75 M193 15.25 C193 26.87, 193 38.48, 193 45.75 M193 45.75 C193 55.92, 187.92 61, 177.75 61 M193 45.75 C193 55.92, 187.92 61, 177.75 61 M177.75 61 C119.84 61, 61.94 61, 15.25 61 M177.75 61 C138.91 61, 100.08 61, 15.25 61 M15.25 61 C5.08 61, 0 55.92, 0 45.75 M15.25 61 C5.08 61, 0 55.92, 0 45.75 M0 45.75 C0 38.2, 0 30.64, 0 15.25 M0 45.75 C0 37.7, 0 29.66, 0 15.25 M0 15.25 C0 5.08, 5.08 0, 15.25 0 M0 15.25 C0 5.08, 5.08 0, 15.25 0" stroke="#000000" stroke-width="2" fill="none"></path></g><g transform="translate(535.5 161) rotate(0 32.5 11.5)"><text x="0" y="18" font-family="Helvetica, Segoe UI Emoji" font-size="20px" fill="#000000" text-anchor="start" style="white-space: pre;" direction="ltr">Tomcat</text></g><g stroke-linecap="round" transform="translate(483.23838988140665 728.9019581560084) rotate(0 96.5 30.5)"><path d="M15.25 0 M15.25 0 C54.53 0, 93.81 0, 177.75 0 M15.25 0 C48.91 0, 82.57 0, 177.75 0 M177.75 0 C187.92 0, 193 5.08, 193 15.25 M177.75 0 C187.92 0, 193 5.08, 193 15.25 M193 15.25 C193 24.67, 193 34.09, 193 45.75 M193 15.25 C193 23.44, 193 31.63, 193 45.75 M193 45.75 C193 55.92, 187.92 61, 177.75 61 M193 45.75 C193 55.92, 187.92 61, 177.75 61 M177.75 61 C132.45 61, 87.15 61, 15.25 61 M177.75 61 C130.86 61, 83.97 61, 15.25 61 M15.25 61 C5.08 61, 0 55.92, 0 45.75 M15.25 61 C5.08 61, 0 55.92, 0 45.75 M0 45.75 C0 34.57, 0 23.4, 0 15.25 M0 45.75 C0 36.64, 0 27.54, 0 15.25 M0 15.25 C0 5.08, 5.08 0, 15.25 0 M0 15.25 C0 5.08, 5.08 0, 15.25 0" stroke="#000000" stroke-width="2" fill="none"></path></g><g transform="translate(533.7383898814066 745.9019581560084) rotate(0 32.5 11.5)"><text x="0" y="18" font-family="Helvetica, Segoe UI Emoji" font-size="20px" fill="#000000" text-anchor="start" style="white-space: pre;" direction="ltr">Tomcat</text></g><g stroke-linecap="round" transform="translate(485.23838988140665 814.9019581560084) rotate(0 96.5 30.5)"><path d="M15.25 0 M15.25 0 C53.93 0, 92.61 0, 177.75 0 M15.25 0 C70.83 0, 126.42 0, 177.75 0 M177.75 0 C187.92 0, 193 5.08, 193 15.25 M177.75 0 C187.92 0, 193 5.08, 193 15.25 M193 15.25 C193 24.02, 193 32.8, 193 45.75 M193 15.25 C193 22.65, 193 30.04, 193 45.75 M193 45.75 C193 55.92, 187.92 61, 177.75 61 M193 45.75 C193 55.92, 187.92 61, 177.75 61 M177.75 61 C126.81 61, 75.88 61, 15.25 61 M177.75 61 C128.29 61, 78.84 61, 15.25 61 M15.25 61 C5.08 61, 0 55.92, 0 45.75 M15.25 61 C5.08 61, 0 55.92, 0 45.75 M0 45.75 C0 39.06, 0 32.36, 0 15.25 M0 45.75 C0 33.81, 0 21.86, 0 15.25 M0 15.25 C0 5.08, 5.08 0, 15.25 0 M0 15.25 C0 5.08, 5.08 0, 15.25 0" stroke="#000000" stroke-width="2" fill="none"></path></g><g transform="translate(548.7383898814066 832.9019581560084) rotate(0 31.5 11.5)"><text x="0" y="18" font-family="Helvetica, Segoe UI Emoji" font-size="20px" fill="#000000" text-anchor="start" style="white-space: pre;" direction="ltr">Servlet</text></g><g stroke-linecap="round" transform="translate(891 269) rotate(0 96.5 30.5)"><path d="M15.25 0 M15.25 0 C51.37 0, 87.49 0, 177.75 0 M15.25 0 C50.18 0, 85.1 0, 177.75 0 M177.75 0 C187.92 0, 193 5.08, 193 15.25 M177.75 0 C187.92 0, 193 5.08, 193 15.25 M193 15.25 C193 23.51, 193 31.77, 193 45.75 M193 15.25 C193 23.07, 193 30.9, 193 45.75 M193 45.75 C193 55.92, 187.92 61, 177.75 61 M193 45.75 C193 55.92, 187.92 61, 177.75 61 M177.75 61 C126.4 61, 75.06 61, 15.25 61 M177.75 61 C116.48 61, 55.2 61, 15.25 61 M15.25 61 C5.08 61, 0 55.92, 0 45.75 M15.25 61 C5.08 61, 0 55.92, 0 45.75 M0 45.75 C0 35.68, 0 25.61, 0 15.25 M0 45.75 C0 38.68, 0 31.61, 0 15.25 M0 15.25 C0 5.08, 5.08 0, 15.25 0 M0 15.25 C0 5.08, 5.08 0, 15.25 0" stroke="#000000" stroke-width="2" fill="none"></path></g><g transform="translate(935.5 285) rotate(0 54.5 11.5)"><text x="0" y="18" font-family="Helvetica, Segoe UI Emoji" font-size="20px" fill="#000000" text-anchor="start" style="white-space: pre;" direction="ltr">HTML-Form</text></g><g stroke-linecap="round" transform="translate(906.8123285737713 788.9439981500797) rotate(0 96.5 30.5)"><path d="M15.25 0 M15.25 0 C74.22 0, 133.2 0, 177.75 0 M15.25 0 C76.1 0, 136.95 0, 177.75 0 M177.75 0 C187.92 0, 193 5.08, 193 15.25 M177.75 0 C187.92 0, 193 5.08, 193 15.25 M193 15.25 C193 21.4, 193 27.55, 193 45.75 M193 15.25 C193 25.87, 193 36.49, 193 45.75 M193 45.75 C193 55.92, 187.92 61, 177.75 61 M193 45.75 C193 55.92, 187.92 61, 177.75 61 M177.75 61 C139.96 61, 102.17 61, 15.25 61 M177.75 61 C127.56 61, 77.37 61, 15.25 61 M15.25 61 C5.08 61, 0 55.92, 0 45.75 M15.25 61 C5.08 61, 0 55.92, 0 45.75 M0 45.75 C0 33.77, 0 21.79, 0 15.25 M0 45.75 C0 36.31, 0 26.87, 0 15.25 M0 15.25 C0 5.08, 5.08 0, 15.25 0 M0 15.25 C0 5.08, 5.08 0, 15.25 0" stroke="#000000" stroke-width="2" fill="none"></path></g><g transform="translate(951.3123285737713 804.9439981500797) rotate(0 54.5 11.5)"><text x="0" y="18" font-family="Helvetica, Segoe UI Emoji" font-size="20px" fill="#000000" text-anchor="start" style="white-space: pre;" direction="ltr">HTML-Form</text></g><g stroke-linecap="round"><g transform="translate(582 85) rotate(0 0.5 26)"><path d="M0 0 C0.17 8.67, 0.83 43.33, 1 52 M0 0 C0.17 8.67, 0.83 43.33, 1 52" stroke="#000000" stroke-width="2" fill="none"></path></g><g transform="translate(582 85) rotate(0 0.5 26)"><path d="M1 52 L-5.6 38.53 L7.08 38.29 L1 52" stroke="none" stroke-width="0" fill="#000000" fill-rule="evenodd"></path><path d="M1 52 C-1.55 46.8, -4.09 41.6, -5.6 38.53 M1 52 C-0.32 49.3, -1.65 46.6, -5.6 38.53 M-5.6 38.53 C-1.78 38.46, 2.05 38.38, 7.08 38.29 M-5.6 38.53 C-2.37 38.47, 0.86 38.41, 7.08 38.29 M7.08 38.29 C5.61 41.59, 4.14 44.9, 1 52 M7.08 38.29 C5.36 42.17, 3.64 46.05, 1 52 M1 52 C1 52, 1 52, 1 52 M1 52 C1 52, 1 52, 1 52" stroke="#000000" stroke-width="2" fill="none"></path></g></g><g stroke-linecap="round"><g transform="translate(579.3876472429902 702.7291202001087) rotate(0 -0.8735785160954492 11.08758436993594)"><path d="M0 0 C-0.29 3.7, -1.46 18.48, -1.75 22.18 M0 0 C-0.29 3.7, -1.46 18.48, -1.75 22.18" stroke="#000000" stroke-width="2" fill="none"></path></g><g transform="translate(579.3876472429902 702.7291202001087) rotate(0 -0.8735785160954492 11.08758436993594)"><path d="M-1.75 22.18 L-5.64 11.76 L3.73 12.5 L-1.75 22.18" stroke="none" stroke-width="0" fill="#000000" fill-rule="evenodd"></path><path d="M-1.75 22.18 C-2.9 19.09, -4.05 16, -5.64 11.76 M-1.75 22.18 C-3.12 18.5, -4.49 14.83, -5.64 11.76 M-5.64 11.76 C-2.04 12.04, 1.55 12.32, 3.73 12.5 M-5.64 11.76 C-3.6 11.92, -1.56 12.08, 3.73 12.5 M3.73 12.5 C2.34 14.95, 0.95 17.41, -1.75 22.18 M3.73 12.5 C1.69 16.09, -0.34 19.69, -1.75 22.18 M-1.75 22.18 C-1.75 22.18, -1.75 22.18, -1.75 22.18 M-1.75 22.18 C-1.75 22.18, -1.75 22.18, -1.75 22.18" stroke="#000000" stroke-width="2" fill="none"></path></g></g><g stroke-linecap="round"><g transform="translate(588 207) rotate(0 0.5 27.5)"><path d="M0 0 C0.17 9.17, 0.83 45.83, 1 55 M0 0 C0.17 9.17, 0.83 45.83, 1 55" stroke="#000000" stroke-width="2" fill="none"></path></g><g transform="translate(588 207) rotate(0 0.5 27.5)"><path d="M1 55 L-5.59 41.52 L7.09 41.29 L1 55" stroke="none" stroke-width="0" fill="#000000" fill-rule="evenodd"></path><path d="M1 55 C-0.62 51.68, -2.24 48.37, -5.59 41.52 M1 55 C-0.8 51.32, -2.59 47.65, -5.59 41.52 M-5.59 41.52 C-1.14 41.44, 3.3 41.36, 7.09 41.29 M-5.59 41.52 C-2.83 41.47, -0.08 41.42, 7.09 41.29 M7.09 41.29 C5.86 44.06, 4.63 46.82, 1 55 M7.09 41.29 C4.69 46.69, 2.29 52.09, 1 55 M1 55 C1 55, 1 55, 1 55 M1 55 C1 55, 1 55, 1 55" stroke="#000000" stroke-width="2" fill="none"></path></g></g><g stroke-linecap="round"><g transform="translate(585.3767973882705 791.9019581560084) rotate(0 0.3743857732958986 11)"><path d="M0 0 C0.12 3.67, 0.62 18.33, 0.75 22 M0 0 C0.12 3.67, 0.62 18.33, 0.75 22" stroke="#000000" stroke-width="2" fill="none"></path></g><g transform="translate(585.3767973882705 791.9019581560084) rotate(0 0.3743857732958986 11)"><path d="M0.75 22 L-4.24 12.19 L5.06 11.87 L0.75 22" stroke="none" stroke-width="0" fill="#000000" fill-rule="evenodd"></path><path d="M0.75 22 C-0.28 19.97, -1.32 17.94, -4.24 12.19 M0.75 22 C-1.15 18.27, -3.04 14.54, -4.24 12.19 M-4.24 12.19 C-1.74 12.1, 0.75 12.02, 5.06 11.87 M-4.24 12.19 C-2.22 12.12, -0.21 12.05, 5.06 11.87 M5.06 11.87 C3.81 14.79, 2.57 17.72, 0.75 22 M5.06 11.87 C3.42 15.73, 1.78 19.59, 0.75 22 M0.75 22 C0.75 22, 0.75 22, 0.75 22 M0.75 22 C0.75 22, 0.75 22, 0.75 22" stroke="#000000" stroke-width="2" fill="none"></path></g></g><g stroke-linecap="round"><g transform="translate(685 292) rotate(0 101 0.5)"><path d="M0 0 C33.67 0.17, 168.33 0.83, 202 1 M0 0 C33.67 0.17, 168.33 0.83, 202 1" stroke="#000000" stroke-width="2" fill="none"></path></g><g transform="translate(685 292) rotate(0 101 0.5)"><path d="M202 1 L188.37 7.27 L188.44 -5.41 L202 1" stroke="none" stroke-width="0" fill="#000000" fill-rule="evenodd"></path><path d="M202 1 C198.78 2.48, 195.56 3.97, 188.37 7.27 M202 1 C196.66 3.46, 191.32 5.92, 188.37 7.27 M188.37 7.27 C188.39 4.34, 188.4 1.41, 188.44 -5.41 M188.37 7.27 C188.4 2.28, 188.42 -2.71, 188.44 -5.41 M188.44 -5.41 C191.49 -3.97, 194.53 -2.53, 202 1 M188.44 -5.41 C192.92 -3.29, 197.4 -1.17, 202 1 M202 1 C202 1, 202 1, 202 1 M202 1 C202 1, 202 1, 202 1" stroke="#000000" stroke-width="2" fill="none"></path></g></g><g stroke-linecap="round"><g transform="translate(681.6718736371101 828.628319694655) rotate(0 111.28451318261637 0.5547700300421639)"><path d="M0 0 C37.09 0.18, 185.47 0.92, 222.57 1.11 M0 0 C37.09 0.18, 185.47 0.92, 222.57 1.11" stroke="#000000" stroke-width="2" fill="none"></path></g><g transform="translate(681.6718736371101 828.628319694655) rotate(0 111.28451318261637 0.5547700300421639)"><path d="M222.57 1.11 L208.94 7.38 L209.01 -5.3 L222.57 1.11" stroke="none" stroke-width="0" fill="#000000" fill-rule="evenodd"></path><path d="M222.57 1.11 C217.77 3.32, 212.96 5.53, 208.94 7.38 M222.57 1.11 C219.51 2.52, 216.45 3.93, 208.94 7.38 M208.94 7.38 C208.96 3.63, 208.98 -0.12, 209.01 -5.3 M208.94 7.38 C208.97 2.34, 208.99 -2.7, 209.01 -5.3 M209.01 -5.3 C211.95 -3.91, 214.89 -2.52, 222.57 1.11 M209.01 -5.3 C212.59 -3.61, 216.17 -1.91, 222.57 1.11 M222.57 1.11 C222.57 1.11, 222.57 1.11, 222.57 1.11 M222.57 1.11 C222.57 1.11, 222.57 1.11, 222.57 1.11" stroke="#000000" stroke-width="2" fill="none"></path></g></g><g stroke-linecap="round"><g transform="translate(887 308) rotate(0 -100 0)"><path d="M0 0 C-33.33 0, -166.67 0, -200 0 M0 0 C-33.33 0, -166.67 0, -200 0" stroke="#000000" stroke-width="2" fill="none"></path></g><g transform="translate(887 308) rotate(0 -100 0)"><path d="M-200 0 L-186.41 -6.34 L-186.41 6.34 L-200 0" stroke="none" stroke-width="0" fill="#000000" fill-rule="evenodd"></path><path d="M-200 0 C-197.13 -1.34, -194.25 -2.68, -186.41 -6.34 M-200 0 C-196.24 -1.75, -192.49 -3.5, -186.41 -6.34 M-186.41 -6.34 C-186.41 -2.66, -186.41 1.02, -186.41 6.34 M-186.41 -6.34 C-186.41 -1.67, -186.41 3.01, -186.41 6.34 M-186.41 6.34 C-190.2 4.57, -193.99 2.8, -200 0 M-186.41 6.34 C-191.44 3.99, -196.48 1.64, -200 0 M-200 0 C-200 0, -200 0, -200 0 M-200 0 C-200 0, -200 0, -200 0" stroke="#000000" stroke-width="2" fill="none"></path></g></g><g stroke-linecap="round"><g transform="translate(905.8123285737713 844.4558811887092) rotate(0 -112.82944408938909 -3.5870347081482805)"><path d="M0 0 C-37.61 -1.2, -188.05 -5.98, -225.66 -7.17 M0 0 C-37.61 -1.2, -188.05 -5.98, -225.66 -7.17" stroke="#000000" stroke-width="2" fill="none"></path></g><g transform="translate(905.8123285737713 844.4558811887092) rotate(0 -112.82944408938909 -3.5870347081482805)"><path d="M-225.66 -7.17 L-211.87 -13.08 L-212.27 -0.41 L-225.66 -7.17" stroke="none" stroke-width="0" fill="#000000" fill-rule="evenodd"></path><path d="M-225.66 -7.17 C-220.94 -9.19, -216.23 -11.21, -211.87 -13.08 M-225.66 -7.17 C-220.43 -9.41, -215.19 -11.65, -211.87 -13.08 M-211.87 -13.08 C-211.97 -10.01, -212.07 -6.93, -212.27 -0.41 M-211.87 -13.08 C-211.97 -9.88, -212.07 -6.69, -212.27 -0.41 M-212.27 -0.41 C-216.35 -2.47, -220.42 -4.53, -225.66 -7.17 M-212.27 -0.41 C-216.76 -2.67, -221.25 -4.94, -225.66 -7.17 M-225.66 -7.17 C-225.66 -7.17, -225.66 -7.17, -225.66 -7.17 M-225.66 -7.17 C-225.66 -7.17, -225.66 -7.17, -225.66 -7.17" stroke="#000000" stroke-width="2" fill="none"></path></g></g><g stroke-linecap="round"><g transform="translate(486 293) rotate(0 -124.5 -0.5)"><path d="M0 0 C-41.5 -0.17, -207.5 -0.83, -249 -1 M0 0 C-41.5 -0.17, -207.5 -0.83, -249 -1" stroke="#000000" stroke-width="2" fill="none"></path></g><g transform="translate(486 293) rotate(0 -124.5 -0.5)"><path d="M-249 -1 L-235.38 -7.28 L-235.43 5.39 L-249 -1" stroke="none" stroke-width="0" fill="#000000" fill-rule="evenodd"></path><path d="M-249 -1 C-244.82 -2.93, -240.64 -4.86, -235.38 -7.28 M-249 -1 C-244.48 -3.08, -239.96 -5.17, -235.38 -7.28 M-235.38 -7.28 C-235.39 -4.11, -235.41 -0.94, -235.43 5.39 M-235.38 -7.28 C-235.4 -3.17, -235.41 0.95, -235.43 5.39 M-235.43 5.39 C-238.77 3.82, -242.11 2.25, -249 -1 M-235.43 5.39 C-240.61 2.95, -245.79 0.51, -249 -1 M-249 -1 C-249 -1, -249 -1, -249 -1 M-249 -1 C-249 -1, -249 -1, -249 -1" stroke="#000000" stroke-width="2" fill="none"></path></g></g><g stroke-linecap="round"><g transform="translate(267.09553273854954 956.0948493445072) rotate(0 -16.428571428571445 -0.45981198789240807)"><path d="M0 0 C-5.48 -0.15, -27.38 -0.77, -32.86 -0.92 M0 0 C-5.48 -0.15, -27.38 -0.77, -32.86 -0.92" stroke="#000000" stroke-width="2" fill="none"></path></g><g transform="translate(267.09553273854954 956.0948493445072) rotate(0 -16.428571428571445 -0.45981198789240807)"><path d="M-32.86 -0.92 L-19.09 -6.88 L-19.45 5.8 L-32.86 -0.92" stroke="none" stroke-width="0" fill="#000000" fill-rule="evenodd"></path><path d="M-32.86 -0.92 C-27.86 -3.08, -22.87 -5.24, -19.09 -6.88 M-32.86 -0.92 C-28.21 -2.93, -23.57 -4.94, -19.09 -6.88 M-19.09 -6.88 C-19.16 -4.22, -19.24 -1.56, -19.45 5.8 M-19.09 -6.88 C-19.21 -2.65, -19.33 1.57, -19.45 5.8 M-19.45 5.8 C-23.02 4.01, -26.59 2.22, -32.86 -0.92 M-19.45 5.8 C-24.72 3.16, -29.99 0.52, -32.86 -0.92 M-32.86 -0.92 C-32.86 -0.92, -32.86 -0.92, -32.86 -0.92 M-32.86 -0.92 C-32.86 -0.92, -32.86 -0.92, -32.86 -0.92" stroke="#000000" stroke-width="2" fill="none"></path></g></g><g stroke-linecap="round"><g transform="translate(235 310) rotate(0 122.5 -1)"><path d="M0 0 C40.83 -0.33, 204.17 -1.67, 245 -2 M0 0 C40.83 -0.33, 204.17 -1.67, 245 -2" stroke="#000000" stroke-width="2" fill="none"></path></g><g transform="translate(235 310) rotate(0 122.5 -1)"><path d="M245 -2 L231.46 4.45 L231.35 -8.23 L245 -2" stroke="none" stroke-width="0" fill="#000000" fill-rule="evenodd"></path><path d="M245 -2 C241.17 -0.18, 237.35 1.64, 231.46 4.45 M245 -2 C241.65 -0.41, 238.3 1.19, 231.46 4.45 M231.46 4.45 C231.42 -0.04, 231.38 -4.53, 231.35 -8.23 M231.46 4.45 C231.43 0.67, 231.4 -3.12, 231.35 -8.23 M231.35 -8.23 C234.17 -6.94, 237 -5.65, 245 -2 M231.35 -8.23 C235.72 -6.24, 240.09 -4.24, 245 -2 M245 -2 C245 -2, 245 -2, 245 -2 M245 -2 C245 -2, 245 -2, 245 -2" stroke="#000000" stroke-width="2" fill="none"></path></g></g><g stroke-linecap="round"><g transform="translate(232.23838988140665 971.9966665002452) rotate(0 19.928571428571388 -0.1501272240907383)"><path d="M0 0 C6.64 -0.05, 33.21 -0.25, 39.86 -0.3 M0 0 C6.64 -0.05, 33.21 -0.25, 39.86 -0.3" stroke="#000000" stroke-width="2" fill="none"></path></g><g transform="translate(232.23838988140665 971.9966665002452) rotate(0 19.928571428571388 -0.1501272240907383)"><path d="M39.86 -0.3 L26.31 6.14 L26.22 -6.54 L39.86 -0.3" stroke="none" stroke-width="0" fill="#000000" fill-rule="evenodd"></path><path d="M39.86 -0.3 C34.78 2.11, 29.71 4.52, 26.31 6.14 M39.86 -0.3 C35.67 1.69, 31.49 3.68, 26.31 6.14 M26.31 6.14 C26.28 1.73, 26.24 -2.69, 26.22 -6.54 M26.31 6.14 C26.28 2.61, 26.26 -0.93, 26.22 -6.54 M26.22 -6.54 C30.43 -4.61, 34.64 -2.68, 39.86 -0.3 M26.22 -6.54 C31.21 -4.25, 36.21 -1.97, 39.86 -0.3 M39.86 -0.3 C39.86 -0.3, 39.86 -0.3, 39.86 -0.3 M39.86 -0.3 C39.86 -0.3, 39.86 -0.3, 39.86 -0.3" stroke="#000000" stroke-width="2" fill="none"></path></g></g><g stroke-linecap="round" transform="translate(299 277) rotate(0 61 22)"><path d="M0 0 L122 0 L122 44 L0 44" stroke="none" stroke-width="0" fill="#868e96"></path><path d="M0 0 C27.32 0, 54.64 0, 122 0 M0 0 C36.33 0, 72.66 0, 122 0 M122 0 C122 9.49, 122 18.98, 122 44 M122 0 C122 16.97, 122 33.94, 122 44 M122 44 C89.37 44, 56.74 44, 0 44 M122 44 C87.27 44, 52.55 44, 0 44 M0 44 C0 31.38, 0 18.76, 0 0 M0 44 C0 32.21, 0 20.43, 0 0" stroke="#000000" stroke-width="2" fill="none"></path></g><g stroke-linecap="round" transform="translate(305.8098184528351 948.7591010131513) rotate(0 61 22)"><path d="M0 0 L122 0 L122 44 L0 44" stroke="none" stroke-width="0" fill="#868e96"></path><path d="M0 0 C43.36 0, 86.72 0, 122 0 M0 0 C28.93 0, 57.87 0, 122 0 M122 0 C122 12.69, 122 25.39, 122 44 M122 0 C122 10.76, 122 21.53, 122 44 M122 44 C81.66 44, 41.31 44, 0 44 M122 44 C82.61 44, 43.21 44, 0 44 M0 44 C0 26.9, 0 9.8, 0 0 M0 44 C0 29.07, 0 14.14, 0 0" stroke="#000000" stroke-width="2" fill="none"></path></g><g stroke-linecap="round" transform="translate(731.1684931394391 810.2673683548145) rotate(0 61 22)"><path d="M0 0 L122 0 L122 44 L0 44" stroke="none" stroke-width="0" fill="#868e96"></path><path d="M0 0 C46.88 0, 93.76 0, 122 0 M0 0 C35.09 0, 70.19 0, 122 0 M122 0 C122 13.59, 122 27.18, 122 44 M122 0 C122 13.79, 122 27.58, 122 44 M122 44 C80.79 44, 39.57 44, 0 44 M122 44 C95.23 44, 68.45 44, 0 44 M0 44 C0 32.16, 0 20.32, 0 0 M0 44 C0 27.32, 0 10.64, 0 0" stroke="#000000" stroke-width="2" fill="none"></path></g><g transform="translate(304 287.5) rotate(0 56 11.5)"><text x="56" y="18" font-family="Helvetica, Segoe UI Emoji" font-size="20px" fill="#000000" text-anchor="middle" style="white-space: pre;" direction="ltr">JDBC</text></g><g transform="translate(310.8098184528351 959.2591010131513) rotate(0 56 11.5)"><text x="56" y="18" font-family="Helvetica, Segoe UI Emoji" font-size="20px" fill="#000000" text-anchor="middle" style="white-space: pre;" direction="ltr">JDBC</text></g><g transform="translate(736.1684931394391 820.7673683548145) rotate(0 56 11.5)"><text x="56" y="18" font-family="Helvetica, Segoe UI Emoji" font-size="20px" fill="#000000" text-anchor="middle" style="white-space: pre;" direction="ltr">Port 8080</text></g><g stroke-linecap="round" transform="translate(10 10) rotate(0 562 197)"><path d="M0 0 C253.6 0, 507.2 0, 1124 0 M0 0 C442.54 0, 885.09 0, 1124 0 M1124 0 C1124 110.46, 1124 220.92, 1124 394 M1124 0 C1124 79.65, 1124 159.3, 1124 394 M1124 394 C890.05 394, 656.1 394, 0 394 M1124 394 C863.23 394, 602.46 394, 0 394 M0 394 C0 269.81, 0 145.62, 0 0 M0 394 C0 298.58, 0 203.15, 0 0" stroke="#0b7285" stroke-width="4" fill="none"></path></g><g stroke-linecap="round" transform="translate(12.524104167120868 623.1876724417228) rotate(0 562 209.14285714285705)"><path d="M0 0 C310.74 0, 621.47 0, 1124 0 M0 0 C388.9 0, 777.79 0, 1124 0 M1124 0 C1124 140.28, 1124 280.57, 1124 418.29 M1124 0 C1124 115.09, 1124 230.18, 1124 418.29 M1124 418.29 C864.31 418.29, 604.63 418.29, 0 418.29 M1124 418.29 C821.38 418.29, 518.75 418.29, 0 418.29 M0 418.29 C0 285.57, 0 152.86, 0 0 M0 418.29 C0 285.66, 0 153.03, 0 0" stroke="#0b7285" stroke-width="4" fill="none"></path></g><g stroke-linecap="round" transform="translate(274.09553273854954 906.7591010131513) rotate(0 125.5 51.50000000000006)"><path d="M0 0 C88.53 0, 177.06 0, 251 0 M0 0 C96.33 0, 192.66 0, 251 0 M251 0 C251 22.45, 251 44.9, 251 103 M251 0 C251 26.13, 251 52.27, 251 103 M251 103 C157.68 103, 64.36 103, 0 103 M251 103 C195.84 103, 140.69 103, 0 103 M0 103 C0 64.76, 0 26.52, 0 0 M0 103 C0 79.56, 0 56.13, 0 0" stroke="#0b7285" stroke-width="4" fill="none"></path></g><g stroke-linecap="round"><g transform="translate(535.5513203005305 877.9019581560084) rotate(0 -16.182785548311756 12.928571428571445)"><path d="M0 0 C-5.39 4.31, -26.97 21.55, -32.37 25.86 M0 0 C-5.39 4.31, -26.97 21.55, -32.37 25.86" stroke="#0b7285" stroke-width="4" fill="none"></path></g><g transform="translate(535.5513203005305 877.9019581560084) rotate(0 -16.182785548311756 12.928571428571445)"><path d="M-32.37 25.86 L-25.7 12.42 L-17.79 22.32 L-32.37 25.86" stroke="none" stroke-width="0" fill="#0b7285" fill-rule="evenodd"></path><path d="M-32.37 25.86 C-30.87 22.84, -29.37 19.82, -25.7 12.42 M-32.37 25.86 C-30.39 21.88, -28.42 17.9, -25.7 12.42 M-25.7 12.42 C-22.55 16.36, -19.41 20.3, -17.79 22.32 M-25.7 12.42 C-23.98 14.57, -22.27 16.72, -17.79 22.32 M-17.79 22.32 C-21.64 23.26, -25.49 24.19, -32.37 25.86 M-17.79 22.32 C-22.89 23.56, -28 24.8, -32.37 25.86 M-32.37 25.86 C-32.37 25.86, -32.37 25.86, -32.37 25.86 M-32.37 25.86 C-32.37 25.86, -32.37 25.86, -32.37 25.86" stroke="#0b7285" stroke-width="4" fill="none"></path></g></g><g transform="translate(309.09553273854954 913.9019581560084) rotate(0 56.5 11.5)"><text x="0" y="18" font-family="Helvetica, Segoe UI Emoji" font-size="20px" fill="#0b7285" text-anchor="start" style="white-space: pre;" direction="ltr">Repository 1</text></g><g stroke-opacity="0.4" fill-opacity="0.4" stroke-linecap="round" transform="translate(38.77657052895165 20.406307981003295) rotate(0 516.1842650306601 38.120572897489694)"><path d="M0 0 L1032.37 0 L1032.37 76.24 L0 76.24" stroke="none" stroke-width="0" fill="#e64980"></path><path d="M0 0 C378.9 0, 757.81 0, 1032.37 0 M0 0 C234.95 0, 469.9 0, 1032.37 0 M1032.37 0 C1032.37 26.35, 1032.37 52.7, 1032.37 76.24 M1032.37 0 C1032.37 21.08, 1032.37 42.16, 1032.37 76.24 M1032.37 76.24 C639.89 76.24, 247.4 76.24, 0 76.24 M1032.37 76.24 C636.19 76.24, 240.02 76.24, 0 76.24 M0 76.24 C0 52.32, 0 28.4, 0 0 M0 76.24 C0 53.88, 0 31.52, 0 0" stroke="#a61e4d" stroke-width="4" fill="none"></path></g><g stroke-opacity="0.4" fill-opacity="0.4" stroke-linecap="round" transform="translate(35.43269789436181 109.23189939615156) rotate(0 528.0250925882924 138.26784067903037)"><path d="M0 0 L1056.05 0 L1056.05 276.54 L0 276.54" stroke="none" stroke-width="0" fill="#4c6ef5"></path><path d="M0 0 C242.21 0, 484.43 0, 1056.05 0 M0 0 C213.35 0, 426.7 0, 1056.05 0 M1056.05 0 C1056.05 76.18, 1056.05 152.36, 1056.05 276.54 M1056.05 0 C1056.05 75.73, 1056.05 151.46, 1056.05 276.54 M1056.05 276.54 C770.36 276.54, 484.67 276.54, 0 276.54 M1056.05 276.54 C797.94 276.54, 539.82 276.54, 0 276.54 M0 276.54 C0 218.69, 0 160.85, 0 0 M0 276.54 C0 173.92, 0 71.3, 0 0" stroke="#364fc7" stroke-width="4" fill="none"></path></g><g stroke-opacity="0.4" fill-opacity="0.4" stroke-linecap="round" transform="translate(34.73909891834205 635.7142067422914) rotate(0 541.838925173934 118.67108373091804)"><path d="M0 0 L1083.68 0 L1083.68 237.34 L0 237.34" stroke="none" stroke-width="0" fill="#e64980"></path><path d="M0 0 C311.73 0, 623.45 0, 1083.68 0 M0 0 C334.74 0, 669.48 0, 1083.68 0 M1083.68 0 C1083.68 74.39, 1083.68 148.79, 1083.68 237.34 M1083.68 0 C1083.68 80.18, 1083.68 160.36, 1083.68 237.34 M1083.68 237.34 C845.85 237.34, 608.03 237.34, 0 237.34 M1083.68 237.34 C792.11 237.34, 500.55 237.34, 0 237.34 M0 237.34 C0 147.37, 0 57.4, 0 0 M0 237.34 C0 187.65, 0 137.95, 0 0" stroke="#a61e4d" stroke-width="4" fill="none"></path></g><g transform="translate(783.9674874139025 46.29632385328199) rotate(0 77 11.5)"><text x="0" y="18" font-family="Helvetica, Segoe UI Emoji" font-size="20px" fill="#000000" text-anchor="start" style="white-space: pre;" direction="ltr">Application Layer</text></g><g transform="translate(810.7663839449997 158.38192584994948) rotate(0 63 11.5)"><text x="0" y="18" font-family="Helvetica, Segoe UI Emoji" font-size="20px" fill="#000000" text-anchor="start" style="white-space: pre;" direction="ltr">Domain Layer</text></g><g transform="translate(541.7989739114378 937.5967898486664) rotate(0 63 11.5)"><text x="0" y="18" font-family="Helvetica, Segoe UI Emoji" font-size="20px" fill="#000000" text-anchor="start" style="white-space: pre;" direction="ltr">Domain Layer</text></g><g transform="translate(821.2923673508903 692.9503102518448) rotate(0 77 11.5)"><text x="0" y="18" font-family="Helvetica, Segoe UI Emoji" font-size="20px" fill="#000000" text-anchor="start" style="white-space: pre;" direction="ltr">Application Layer</text></g><g transform="translate(573.8342230173631 417.84269162376575) rotate(0 4.407769087515021 69.42236312836121)" stroke="none"><path fill="#364fc7" d="M 5.25,0 Q 5.25,0 5.25,5.06 5.25,10.13 5.25,15.45 5.25,20.77 5.86,25.23 6.47,29.68 7.36,34.78 8.24,39.89 8.82,46.40 9.41,52.92 10.39,59.58 11.38,66.23 11.58,71.05 11.78,75.88 12.70,82.35 13.61,88.83 13.82,95.92 14.03,103.01 14.05,108.12 14.06,113.23 14.06,117.77 14.06,122.30 13.69,127.16 13.32,132.02 12.59,135.55 11.85,139.08 11.68,139.91 11.50,140.74 11.07,141.48 10.64,142.21 9.99,142.76 9.35,143.32 8.56,143.64 7.78,143.96 6.93,144.01 6.08,144.07 5.26,143.85 4.44,143.63 3.73,143.15 3.02,142.68 2.51,142.01 1.99,141.34 1.71,140.53 1.43,139.73 1.42,138.88 1.42,138.03 1.68,137.22 1.95,136.42 2.45,135.74 2.96,135.05 3.66,134.57 4.36,134.09 5.18,133.86 6.00,133.62 6.85,133.66 7.69,133.70 8.49,134.01 9.28,134.32 9.93,134.86 10.58,135.41 11.03,136.13 11.47,136.86 11.66,137.69 11.85,138.51 11.76,139.36 11.68,140.20 11.33,140.98 10.98,141.75 10.40,142.37 9.82,143.00 9.07,143.40 8.32,143.80 7.49,143.95 6.65,144.09 5.81,143.96 4.97,143.83 4.21,143.44 3.46,143.05 2.87,142.43 2.28,141.82 1.92,141.05 1.56,140.28 1.46,139.44 1.36,138.60 1.36,138.60 1.36,138.60 1.68,135.10 1.99,131.61 2.77,126.96 3.56,122.31 3.55,117.78 3.55,113.25 3.54,108.16 3.53,103.07 3.36,96.65 3.20,90.22 2.27,86.03 1.34,81.85 1.25,76.82 1.17,71.79 0.78,67.27 0.38,62.75 -0.34,58.15 -1.07,53.55 -1.59,47.62 -2.10,41.68 -3.02,36.37 -3.94,31.06 -4.59,25.92 -5.25,20.78 -5.25,15.46 -5.25,10.13 -5.25,5.06 -5.25,0 -5.17,-0.62 -5.10,-1.25 -4.87,-1.84 -4.65,-2.44 -4.29,-2.96 -3.93,-3.48 -3.45,-3.90 -2.98,-4.32 -2.42,-4.61 -1.86,-4.91 -1.24,-5.06 -0.63,-5.21 0.00,-5.21 0.63,-5.21 1.24,-5.06 1.86,-4.91 2.42,-4.61 2.98,-4.32 3.45,-3.90 3.93,-3.48 4.29,-2.96 4.65,-2.44 4.87,-1.84 5.10,-1.25 5.17,-0.62 5.25,0.00 5.25,0.00 L 5.25,0 Z"></path></g><g transform="translate(503.30991761712323 528.0369188116407) rotate(0 96.9709199253299 36.36409497199867)" stroke="none"><path fill="#364fc7" d="M 2.51,-4.61 Q 2.51,-4.61 9.48,-0.80 16.45,2.99 20.90,6.01 25.35,9.02 30.94,12.77 36.52,16.52 40.80,19.39 45.07,22.25 49.50,25.41 53.92,28.58 57.64,31.15 61.35,33.72 65.72,37.54 70.09,41.37 76.85,47.21 83.61,53.05 88.24,57.22 92.87,61.39 99.17,56.54 105.47,51.68 116.42,45.24 127.38,38.80 133.89,35.76 140.40,32.71 146.88,29.56 153.36,26.40 158.15,24.37 162.94,22.33 166.92,20.82 170.90,19.30 175.90,17.44 180.91,15.57 186.89,14.03 192.88,12.48 193.73,12.45 194.58,12.41 195.39,12.65 196.21,12.89 196.91,13.38 197.60,13.86 198.11,14.55 198.61,15.23 198.87,16.04 199.13,16.85 199.12,17.70 199.11,18.55 198.83,19.35 198.54,20.15 198.02,20.82 197.50,21.49 196.79,21.96 196.08,22.42 195.25,22.64 194.43,22.86 193.58,22.80 192.74,22.74 191.95,22.41 191.17,22.09 190.53,21.53 189.89,20.97 189.46,20.24 189.03,19.50 188.86,18.67 188.69,17.84 188.79,16.99 188.90,16.15 189.26,15.38 189.63,14.62 190.22,14.01 190.82,13.40 191.57,13.01 192.33,12.62 193.17,12.50 194.01,12.37 194.85,12.52 195.68,12.67 196.43,13.08 197.17,13.49 197.75,14.11 198.33,14.74 198.67,15.52 199.02,16.29 199.10,17.14 199.18,17.98 198.98,18.81 198.79,19.64 198.34,20.36 197.89,21.08 197.24,21.62 196.58,22.17 195.79,22.47 194.99,22.77 194.99,22.77 195.00,22.77 192.17,23.34 189.34,23.90 185.01,25.21 180.68,26.52 173.86,29.26 167.05,32.00 162.50,33.93 157.95,35.85 151.40,39.04 144.85,42.23 138.59,45.15 132.33,48.07 122.35,53.84 112.38,59.60 106.97,65.33 101.57,71.05 97.38,73.11 93.19,75.16 89.43,72.10 85.67,69.04 81.33,65.12 76.99,61.21 70.07,55.23 63.15,49.25 59.26,45.80 55.37,42.36 51.59,39.74 47.80,37.12 43.52,34.05 39.23,30.98 34.95,28.11 30.66,25.25 25.05,21.48 19.43,17.71 15.43,14.96 11.42,12.21 4.45,8.41 -2.51,4.61 -3.03,4.24 -3.54,3.87 -3.95,3.39 -4.37,2.91 -4.65,2.34 -4.94,1.78 -5.08,1.16 -5.22,0.54 -5.21,-0.08 -5.20,-0.71 -5.04,-1.32 -4.88,-1.94 -4.57,-2.49 -4.27,-3.05 -3.84,-3.52 -3.41,-3.98 -2.89,-4.33 -2.36,-4.69 -1.77,-4.90 -1.17,-5.12 -0.54,-5.18 0.08,-5.25 0.71,-5.16 1.33,-5.07 1.92,-4.84 2.51,-4.61 2.51,-4.61 L 2.51,-4.61 Z"></path></g></svg>